<?xml version="1.0" standalone="no"?>
<!DOCTYPE svg PUBLIC "-//W3C//DTD SVG 1.1//EN" "http://www.w3.org/Graphics/SVG/1.1/DTD/svg11.dtd">
<svg version="1.1" xmlns="http://www.w3.org/2000/svg" viewBox="0 0 64.60957732774 62.369453469544396" width="64.60957732774" height="62.369453469544396"><!-- svg-source:excalidraw --><metadata></metadata><defs><style class="style-fonts">
      </style></defs><g stroke-linecap="round" transform="translate(10.000000000000227 10) rotate(0 18.54085983114271 18.12264078939438)"><path d="M37.08 18.12 C37.08 19.17, 36.99 20.24, 36.8 21.27 C36.61 22.3, 36.33 23.34, 35.96 24.32 C35.6 25.31, 35.13 26.28, 34.6 27.18 C34.06 28.09, 33.43 28.97, 32.74 29.77 C32.05 30.58, 31.28 31.33, 30.46 32.01 C29.64 32.68, 28.74 33.29, 27.81 33.82 C26.88 34.34, 25.89 34.79, 24.88 35.15 C23.87 35.51, 22.82 35.79, 21.76 35.97 C20.7 36.15, 19.61 36.25, 18.54 36.25 C17.47 36.25, 16.38 36.15, 15.32 35.97 C14.26 35.79, 13.21 35.51, 12.2 35.15 C11.19 34.79, 10.2 34.34, 9.27 33.82 C8.34 33.29, 7.45 32.68, 6.62 32.01 C5.8 31.33, 5.03 30.58, 4.34 29.77 C3.65 28.97, 3.02 28.09, 2.48 27.18 C1.95 26.28, 1.49 25.31, 1.12 24.32 C0.75 23.34, 0.47 22.3, 0.28 21.27 C0.1 20.24, 0 19.17, 0 18.12 C0 17.07, 0.1 16.01, 0.28 14.98 C0.47 13.94, 0.75 12.91, 1.12 11.92 C1.49 10.94, 1.95 9.97, 2.48 9.06 C3.02 8.15, 3.65 7.28, 4.34 6.47 C5.03 5.67, 5.8 4.91, 6.62 4.24 C7.45 3.57, 8.34 2.95, 9.27 2.43 C10.2 1.9, 11.19 1.45, 12.2 1.09 C13.21 0.73, 14.26 0.46, 15.32 0.28 C16.38 0.09, 17.47 0, 18.54 0 C19.61 0, 20.7 0.09, 21.76 0.28 C22.82 0.46, 23.87 0.73, 24.88 1.09 C25.89 1.45, 26.88 1.9, 27.81 2.43 C28.74 2.95, 29.64 3.57, 30.46 4.24 C31.28 4.91, 32.05 5.67, 32.74 6.47 C33.43 7.28, 34.06 8.15, 34.6 9.06 C35.13 9.97, 35.6 10.94, 35.96 11.92 C36.33 12.91, 36.61 13.94, 36.8 14.98 C36.99 16.01, 37.03 17.6, 37.08 18.12 C37.13 18.65, 37.13 17.6, 37.08 18.12" stroke="#868e96" stroke-width="4" fill="none"></path></g><g stroke-linecap="round" transform="translate(38.754749823598104 31.34874691061168) rotate(30.55277450102887 1.8472934951221305 10.789859257993896)"><path d="M0 0 C1.39 0, 2.78 0, 3.69 0 M0 0 C1.08 0, 2.15 0, 3.69 0 M3.69 0 C3.69 7.7, 3.69 15.41, 3.69 21.58 M3.69 0 C3.69 7.92, 3.69 15.84, 3.69 21.58 M3.69 21.58 C2.6 21.58, 1.51 21.58, 0 21.58 M3.69 21.58 C2.66 21.58, 1.63 21.58, 0 21.58 M0 21.58 C0 14.46, 0 7.33, 0 0 M0 21.58 C0 16.76, 0 11.94, 0 0" stroke="#ffffff" stroke-width="4" fill="none"></path></g><g stroke-linecap="round"><g transform="translate(40.390214994311236 23.661663380479183) rotate(0 7.109681166714381 5.018580640096303)"><path d="M0 0 C2.11 3.8, 4.22 7.59, 5.58 10.04 M0 0 C1.63 2.93, 3.25 5.86, 5.58 10.04 M5.58 10.04 C7.85 7.62, 10.12 5.21, 14.22 0.84 M5.58 10.04 C8.18 7.27, 10.78 4.5, 14.22 0.84" stroke="#868e96" stroke-width="4" fill="none"></path></g></g><mask></mask><g stroke-linecap="round" transform="translate(33.32575258395923 42.341949944062776) rotate(0 1.9988110189416375 2.509287661110136)"><path d="M0 0 C1.18 0, 2.37 0, 4 0 M0 0 C1.45 0, 2.91 0, 4 0 M4 0 C4 1.66, 4 3.33, 4 5.02 M4 0 C4 1.26, 4 2.51, 4 5.02 M4 5.02 C2.96 5.02, 1.93 5.02, 0 5.02 M4 5.02 C3.16 5.02, 2.32 5.02, 0 5.02 M0 5.02 C0 3.89, 0 2.76, 0 0 M0 5.02 C0 3.33, 0 1.64, 0 0" stroke="#ffffff" stroke-width="4" fill="none"></path></g></svg>