<?xml version="1.0" standalone="no"?>
<!DOCTYPE svg PUBLIC "-//W3C//DTD SVG 1.1//EN" "http://www.w3.org/Graphics/SVG/1.1/DTD/svg11.dtd">
<svg version="1.1" xmlns="http://www.w3.org/2000/svg" viewBox="0 0 59.590991369767266 49.135637637206514" width="59.590991369767266" height="49.135637637206514"><!-- svg-source:excalidraw --><metadata></metadata><defs><style class="style-fonts">
      </style></defs><g stroke-linecap="round" transform="translate(10.278805603997284 10) rotate(0 19.65609288288499 5.576197165967528)"><path d="M0 0 C9.12 0, 18.23 0, 39.31 0 M0 0 C11.12 0, 22.25 0, 39.31 0 M39.31 0 C39.31 2.25, 39.31 4.5, 39.31 11.15 M39.31 0 C39.31 3.72, 39.31 7.45, 39.31 11.15 M39.31 11.15 C24.59 11.15, 9.87 11.15, 0 11.15 M39.31 11.15 C25.82 11.15, 12.33 11.15, 0 11.15 M0 11.15 C0 7.17, 0 3.19, 0 0 M0 11.15 C0 6.94, 0 2.73, 0 0" stroke="#868e96" stroke-width="4" fill="none"></path></g><g stroke-linecap="round" transform="translate(10 27.983243305271458) rotate(0 19.65609288288499 5.576197165967528)"><path d="M0 0 C15.06 0, 30.13 0, 39.31 0 M0 0 C15.5 0, 31.01 0, 39.31 0 M39.31 0 C39.31 3.48, 39.31 6.95, 39.31 11.15 M39.31 0 C39.31 3.25, 39.31 6.51, 39.31 11.15 M39.31 11.15 C27.24 11.15, 15.17 11.15, 0 11.15 M39.31 11.15 C23.66 11.15, 8.01 11.15, 0 11.15 M0 11.15 C0 8.89, 0 6.63, 0 0 M0 11.15 C0 8.41, 0 5.66, 0 0" stroke="#868e96" stroke-width="4" fill="none"></path></g></svg>