<?xml version="1.0" standalone="no"?>
<!DOCTYPE svg PUBLIC "-//W3C//DTD SVG 1.1//EN" "http://www.w3.org/Graphics/SVG/1.1/DTD/svg11.dtd">
<svg version="1.1" xmlns="http://www.w3.org/2000/svg" viewBox="0 0 68.22816003767184 71.88225683219719" width="68.22816003767184" height="71.88225683219719"><!-- svg-source:excalidraw --><metadata></metadata><defs><style class="style-fonts">
      </style></defs><g stroke-linecap="round" transform="translate(15.441865795378135 13.047207312555656) rotate(0 18.313145775014277 24.417524759820765)"><path d="M9.16 0 C13.77 0, 18.39 0, 27.47 0 M9.16 0 C15.29 0, 21.42 0, 27.47 0 M27.47 0 C33.57 0, 36.63 3.05, 36.63 9.16 M27.47 0 C33.57 0, 36.63 3.05, 36.63 9.16 M36.63 9.16 C36.63 17.39, 36.63 25.62, 36.63 39.68 M36.63 9.16 C36.63 20.92, 36.63 32.68, 36.63 39.68 M36.63 39.68 C36.63 45.78, 33.57 48.84, 27.47 48.84 M36.63 39.68 C36.63 45.78, 33.57 48.84, 27.47 48.84 M27.47 48.84 C22.92 48.84, 18.37 48.84, 9.16 48.84 M27.47 48.84 C22.18 48.84, 16.88 48.84, 9.16 48.84 M9.16 48.84 C3.05 48.84, 0 45.78, 0 39.68 M9.16 48.84 C3.05 48.84, 0 45.78, 0 39.68 M0 39.68 C0 29.61, 0 19.55, 0 9.16 M0 39.68 C0 29.79, 0 19.89, 0 9.16 M0 9.16 C0 3.05, 3.05 0, 9.16 0 M0 9.16 C0 3.05, 3.05 0, 9.16 0" stroke="#1e1e1e" stroke-width="4" fill="none"></path></g><g stroke-linecap="round"><g transform="translate(40.70771844133924 30.64461900350136) rotate(0 -7.219930285698922 9.409518726038357)"><path d="M0 0 C-2.41 3.14, -12.03 15.68, -14.44 18.82 M0 0 C-2.41 3.14, -12.03 15.68, -14.44 18.82" stroke="#1e1e1e" stroke-width="4" fill="none"></path></g></g><mask></mask><g stroke-linecap="round"><g transform="translate(27.442538891695108 30.570212014406934) rotate(0 6.781614296379473 9.464503823979555)"><path d="M0 0 C2.26 3.15, 11.3 15.77, 13.56 18.93 M0 0 C2.26 3.15, 11.3 15.77, 13.56 18.93" stroke="#1e1e1e" stroke-width="4" fill="none"></path></g></g><mask></mask><g stroke-linecap="round" transform="translate(10 15.43413564176467) rotate(0 24.11408001883592 1.9246006831054387)"><path d="M0 0 C18.83 0, 37.66 0, 48.23 0 M0 0 C16.76 0, 33.52 0, 48.23 0 M48.23 0 C48.23 1.29, 48.23 2.59, 48.23 3.85 M48.23 0 C48.23 0.96, 48.23 1.93, 48.23 3.85 M48.23 3.85 C36.48 3.85, 24.73 3.85, 0 3.85 M48.23 3.85 C30.7 3.85, 13.17 3.85, 0 3.85 M0 3.85 C0 2.49, 0 1.13, 0 0 M0 3.85 C0 2.7, 0 1.54, 0 0" stroke="#1e1e1e" stroke-width="4" fill="none"></path></g><g stroke-linecap="round" transform="translate(18.151216418689728 10) rotate(0 15.170359753582318 1.1321205892860462)"><path d="M0 0 C9.12 0, 18.24 0, 30.34 0 M0 0 C10.42 0, 20.83 0, 30.34 0 M30.34 0 C30.34 0.61, 30.34 1.22, 30.34 2.26 M30.34 0 C30.34 0.87, 30.34 1.75, 30.34 2.26 M30.34 2.26 C22.34 2.26, 14.35 2.26, 0 2.26 M30.34 2.26 C22.23 2.26, 14.12 2.26, 0 2.26 M0 2.26 C0 1.38, 0 0.49, 0 0 M0 2.26 C0 1.51, 0 0.76, 0 0" stroke="#1e1e1e" stroke-width="4" fill="none"></path></g></svg>