<?xml version="1.0" standalone="no"?>
<!DOCTYPE svg PUBLIC "-//W3C//DTD SVG 1.1//EN" "http://www.w3.org/Graphics/SVG/1.1/DTD/svg11.dtd">
<svg version="1.1" xmlns="http://www.w3.org/2000/svg" viewBox="0 0 68.22816003767184 71.88225683219719" width="68.22816003767184" height="71.88225683219719"><!-- svg-source:excalidraw --><metadata></metadata><defs><style class="style-fonts">
      </style></defs><g stroke-linecap="round" transform="translate(15.441865795378135 13.047207312555656) rotate(0 18.313145775014277 24.417524759820765)"><path d="M9.16 0 C16 0, 22.84 0, 27.47 0 M9.16 0 C15.25 0, 21.34 0, 27.47 0 M27.47 0 C33.57 0, 36.63 3.05, 36.63 9.16 M27.47 0 C33.57 0, 36.63 3.05, 36.63 9.16 M36.63 9.16 C36.63 19.93, 36.63 30.7, 36.63 39.68 M36.63 9.16 C36.63 18.3, 36.63 27.44, 36.63 39.68 M36.63 39.68 C36.63 45.78, 33.57 48.84, 27.47 48.84 M36.63 39.68 C36.63 45.78, 33.57 48.84, 27.47 48.84 M27.47 48.84 C20.8 48.84, 14.12 48.84, 9.16 48.84 M27.47 48.84 C23.07 48.84, 18.67 48.84, 9.16 48.84 M9.16 48.84 C3.05 48.84, 0 45.78, 0 39.68 M9.16 48.84 C3.05 48.84, 0 45.78, 0 39.68 M0 39.68 C0 30.38, 0 21.09, 0 9.16 M0 39.68 C0 29.61, 0 19.54, 0 9.16 M0 9.16 C0 3.05, 3.05 0, 9.16 0 M0 9.16 C0 3.05, 3.05 0, 9.16 0" stroke="#1e1e1e" stroke-width="4" fill="none"></path></g><g stroke-linecap="round"><g transform="translate(27.39811973327778 34.54340906734694) rotate(0 0 9.344399772380086)"><path d="M0 0 C0 3.11, 0 15.57, 0 18.69 M0 0 C0 3.11, 0 15.57, 0 18.69" stroke="#1e1e1e" stroke-width="4" fill="none"></path></g></g><mask></mask><g stroke-linecap="round"><g transform="translate(39.8754960397041 34.70356879937697) rotate(0 0 9.344399772380086)"><path d="M0 0 C0 3.11, 0 15.57, 0 18.69 M0 0 C0 3.11, 0 15.57, 0 18.69" stroke="#1e1e1e" stroke-width="4" fill="none"></path></g></g><mask></mask><g stroke-linecap="round" transform="translate(10 15.43413564176467) rotate(0 24.11408001883592 1.9246006831054387)"><path d="M0 0 C18.31 0, 36.61 0, 48.23 0 M0 0 C12.17 0, 24.34 0, 48.23 0 M48.23 0 C48.23 1.53, 48.23 3.05, 48.23 3.85 M48.23 0 C48.23 1.39, 48.23 2.78, 48.23 3.85 M48.23 3.85 C32.3 3.85, 16.38 3.85, 0 3.85 M48.23 3.85 C37.11 3.85, 25.98 3.85, 0 3.85 M0 3.85 C0 2.78, 0 1.71, 0 0 M0 3.85 C0 2.55, 0 1.24, 0 0" stroke="#1e1e1e" stroke-width="4" fill="none"></path></g><g stroke-linecap="round" transform="translate(18.151216418689728 10) rotate(0 15.170359753582318 1.1321205892860462)"><path d="M0 0 C7.39 0, 14.78 0, 30.34 0 M0 0 C11.03 0, 22.06 0, 30.34 0 M30.34 0 C30.34 0.8, 30.34 1.6, 30.34 2.26 M30.34 0 C30.34 0.68, 30.34 1.36, 30.34 2.26 M30.34 2.26 C20.88 2.26, 11.42 2.26, 0 2.26 M30.34 2.26 C23.52 2.26, 16.7 2.26, 0 2.26 M0 2.26 C0 1.63, 0 1, 0 0 M0 2.26 C0 1.57, 0 0.88, 0 0" stroke="#1e1e1e" stroke-width="4" fill="none"></path></g><g stroke-linecap="round"><g transform="translate(22.026245383731464 37.55966365925599) rotate(0 5.953799765497877 -5.355239635748376)"><path d="M0 0 C1.98 -1.79, 9.92 -8.93, 11.91 -10.71 M0 0 C1.98 -1.79, 9.92 -8.93, 11.91 -10.71" stroke="#1e1e1e" stroke-width="4" fill="none"></path></g></g><mask></mask><g stroke-linecap="round"><g transform="translate(34.16744560047448 27.027875464005206) rotate(0 5.022640875986042 5.329286358064792)"><path d="M0 0 C1.67 1.78, 8.37 8.88, 10.05 10.66 M0 0 C1.67 1.78, 8.37 8.88, 10.05 10.66" stroke="#1e1e1e" stroke-width="4" fill="none"></path></g></g><mask></mask></svg>