<?xml version="1.0" standalone="no"?>
<!DOCTYPE svg PUBLIC "-//W3C//DTD SVG 1.1//EN" "http://www.w3.org/Graphics/SVG/1.1/DTD/svg11.dtd">
<svg version="1.1" xmlns="http://www.w3.org/2000/svg" viewBox="0 0 52.03707472847577 63.974057161479095" width="52.03707472847577" height="63.974057161479095"><!-- svg-source:excalidraw --><metadata></metadata><defs><style class="style-fonts">
      </style></defs><g stroke-linecap="round" transform="translate(16.704667603539747 10) rotate(0 9.642759505997105 13.615781473583922)"><path d="M4.82 0 C7.61 0, 10.4 0, 14.46 0 C17.68 0, 19.29 1.61, 19.29 4.82 C19.29 10.57, 19.29 16.33, 19.29 22.41 C19.29 25.62, 17.68 27.23, 14.46 27.23 C11.27 27.23, 8.08 27.23, 4.82 27.23 C1.61 27.23, 0 25.62, 0 22.41 C0 17.15, 0 11.9, 0 4.82 C0 1.61, 1.61 0, 4.82 0" stroke="none" stroke-width="0" fill="#343a40"></path><path d="M4.82 0 C7.31 0, 9.8 0, 14.46 0 M4.82 0 C6.97 0, 9.11 0, 14.46 0 M14.46 0 C17.68 0, 19.29 1.61, 19.29 4.82 M14.46 0 C17.68 0, 19.29 1.61, 19.29 4.82 M19.29 4.82 C19.29 10.21, 19.29 15.6, 19.29 22.41 M19.29 4.82 C19.29 8.44, 19.29 12.05, 19.29 22.41 M19.29 22.41 C19.29 25.62, 17.68 27.23, 14.46 27.23 M19.29 22.41 C19.29 25.62, 17.68 27.23, 14.46 27.23 M14.46 27.23 C10.7 27.23, 6.94 27.23, 4.82 27.23 M14.46 27.23 C11.51 27.23, 8.55 27.23, 4.82 27.23 M4.82 27.23 C1.61 27.23, 0 25.62, 0 22.41 M4.82 27.23 C1.61 27.23, 0 25.62, 0 22.41 M0 22.41 C0 15.81, 0 9.21, 0 4.82 M0 22.41 C0 16.57, 0 10.72, 0 4.82 M0 4.82 C0 1.61, 1.61 0, 4.82 0 M0 4.82 C0 1.61, 1.61 0, 4.82 0" stroke="#343a40" stroke-width="4" fill="none"></path></g><g stroke-linecap="round"><g transform="translate(13.011435925306614 36.196150724706285) rotate(0 11.585479059770023 1.1811231862906766)"><path d="M0.55 -0.13 C2.8 0.22, 10.27 2.47, 14.01 2.54 C17.76 2.6, 21.39 0.64, 23.01 0.26 M0.16 -0.67 C2.56 -0.3, 11.33 2.81, 15.07 3.02 C18.8 3.23, 21.35 1.02, 22.58 0.6" stroke="#ffffff" stroke-width="4" fill="none"></path></g></g><mask></mask><g stroke-linecap="round"><g transform="translate(13.566251308491246 36.723443163177194) rotate(0 12.613473725791891 0.0648509271857165)"><path d="M-0.35 -0.43 C3.82 -0.42, 21.14 -0.17, 25.57 -0.12 M0.47 0.55 C4.51 0.61, 20.78 0.37, 25.06 0.32" stroke="#343a40" stroke-width="4" fill="none"></path></g></g><mask></mask><g stroke-linecap="round"><g transform="translate(16.49485827391709 31.87936021376572) rotate(0 -3.2474291369585444 4.188712277208481)"><path d="M0 0 C-1.08 1.4, -5.41 6.98, -6.49 8.38 M0 0 C-1.08 1.4, -5.41 6.98, -6.49 8.38" stroke="#343a40" stroke-width="4" fill="none"></path></g></g><mask></mask><g stroke-linecap="round"><g transform="translate(35.79636245261008 31.845670076367696) rotate(0 3.086809123350008 4.2408939176928016)"><path d="M0 0 C1.03 1.41, 5.14 7.07, 6.17 8.48 M0 0 C1.03 1.41, 5.14 7.07, 6.17 8.48" stroke="#343a40" stroke-width="4" fill="none"></path></g></g><mask></mask><g stroke-linecap="round"><g transform="translate(10.025987699012148 40.37512401001891) rotate(0 16.005543514731812 0)"><path d="M0 0 C5.34 0, 26.68 0, 32.01 0 M0 0 C5.34 0, 26.68 0, 32.01 0" stroke="#343a40" stroke-width="4" fill="none"></path></g></g><mask></mask><g stroke-linecap="round"><g transform="translate(26.798972169706758 39.972423696363876) rotate(0 0 7.00081673255761)"><path d="M0 0 C0 2.33, 0 11.67, 0 14 M0 0 C0 2.33, 0 11.67, 0 14" stroke="#343a40" stroke-width="4" fill="none"></path></g></g><mask></mask></svg>