<?xml version="1.0" standalone="no"?>
<!DOCTYPE svg PUBLIC "-//W3C//DTD SVG 1.1//EN" "http://www.w3.org/Graphics/SVG/1.1/DTD/svg11.dtd">
<svg version="1.1" xmlns="http://www.w3.org/2000/svg" viewBox="0 0 52.03707472847577 63.70814201741746" width="52.03707472847577" height="63.70814201741746"><!-- svg-source:excalidraw --><metadata></metadata><defs><style class="style-fonts">
      </style></defs><g stroke-linecap="round" transform="translate(16.571712567463237 10) rotate(0 9.642759505997105 12.818043649263416)"><path d="M4.82 0 C8.57 0, 12.32 0, 14.46 0 M4.82 0 C8.06 0, 11.29 0, 14.46 0 M14.46 0 C17.68 0, 19.29 1.61, 19.29 4.82 M14.46 0 C17.68 0, 19.29 1.61, 19.29 4.82 M19.29 4.82 C19.29 8.22, 19.29 11.62, 19.29 20.81 M19.29 4.82 C19.29 11.07, 19.29 17.31, 19.29 20.81 M19.29 20.81 C19.29 24.03, 17.68 25.64, 14.46 25.64 M19.29 20.81 C19.29 24.03, 17.68 25.64, 14.46 25.64 M14.46 25.64 C11.62 25.64, 8.78 25.64, 4.82 25.64 M14.46 25.64 C11.64 25.64, 8.82 25.64, 4.82 25.64 M4.82 25.64 C1.61 25.64, 0 24.03, 0 20.81 M4.82 25.64 C1.61 25.64, 0 24.03, 0 20.81 M0 20.81 C0 15.24, 0 9.66, 0 4.82 M0 20.81 C0 14.66, 0 8.5, 0 4.82 M0 4.82 C0 1.61, 1.61 0, 4.82 0 M0 4.82 C0 1.61, 1.61 0, 4.82 0" stroke="#343a40" stroke-width="4" fill="none"></path></g><g stroke-linecap="round"><g transform="translate(13.011435925306614 35.93023558064465) rotate(0 13.041565420460984 -0.054871627948500645)"><path d="M0.04 0.07 C4.46 0.1, 22.32 0.29, 26.68 0.34 M-0.6 -0.37 C3.75 -0.51, 22 -0.43, 26.4 -0.45" stroke="#ffffff" stroke-width="4" fill="none"></path></g></g><mask></mask><g stroke-linecap="round"><g transform="translate(13.433296272414964 34.33022715426091) rotate(0 13.374283410702901 -0.2901501224211529)"><path d="M-0.21 -0.03 C4.1 -0.02, 21.54 0.16, 25.95 0.19 M0.68 -0.52 C5.15 -0.7, 22.76 -0.9, 26.96 -0.67" stroke="#ffffff" stroke-width="4" fill="none"></path></g></g><mask></mask><g stroke-linecap="round"><g transform="translate(16.49485827391709 31.613445069704085) rotate(0 -3.2474291369585444 4.188712277208481)"><path d="M0 0 C-1.08 1.4, -5.41 6.98, -6.49 8.38 M0 0 C-1.08 1.4, -5.41 6.98, -6.49 8.38" stroke="#343a40" stroke-width="4" fill="none"></path></g></g><mask></mask><g stroke-linecap="round"><g transform="translate(35.79636245260963 31.579754932305946) rotate(0 3.086809123350008 4.2408939176928016)"><path d="M0 0 C1.03 1.41, 5.14 7.07, 6.17 8.48 M0 0 C1.03 1.41, 5.14 7.07, 6.17 8.48" stroke="#343a40" stroke-width="4" fill="none"></path></g></g><mask></mask><g stroke-linecap="round"><g transform="translate(10.025987699012148 40.10920886595727) rotate(0 16.005543514731812 0)"><path d="M0 0 C5.34 0, 26.68 0, 32.01 0 M0 0 C5.34 0, 26.68 0, 32.01 0" stroke="#343a40" stroke-width="4" fill="none"></path></g></g><mask></mask><g stroke-linecap="round"><g transform="translate(26.79897216970653 39.70650855230224) rotate(0 0 7.00081673255761)"><path d="M0 0 C0 2.33, 0 11.67, 0 14 M0 0 C0 2.33, 0 11.67, 0 14" stroke="#343a40" stroke-width="4" fill="none"></path></g></g><mask></mask></svg>