<?xml version="1.0" standalone="no"?>
<!DOCTYPE svg PUBLIC "-//W3C//DTD SVG 1.1//EN" "http://www.w3.org/Graphics/SVG/1.1/DTD/svg11.dtd">
<svg version="1.1" xmlns="http://www.w3.org/2000/svg" viewBox="0 0 50.97945918440382 68.31772691179447" width="50.97945918440382" height="68.31772691179447"><!-- svg-source:excalidraw --><metadata></metadata><defs><style class="style-fonts">
      </style></defs><g stroke-linecap="round" transform="translate(10 10) rotate(0 15.489729592201911 16.452924418522684)"><path d="M30.98 16.45 C30.98 17.41, 30.9 18.37, 30.74 19.31 C30.59 20.25, 30.35 21.19, 30.05 22.08 C29.74 22.98, 29.35 23.85, 28.9 24.68 C28.46 25.5, 27.93 26.3, 27.36 27.03 C26.78 27.76, 26.13 28.44, 25.45 29.06 C24.76 29.67, 24.01 30.23, 23.23 30.7 C22.46 31.18, 21.63 31.59, 20.79 31.91 C19.95 32.24, 19.06 32.49, 18.18 32.66 C17.3 32.82, 16.39 32.91, 15.49 32.91 C14.59 32.91, 13.68 32.82, 12.8 32.66 C11.92 32.49, 11.03 32.24, 10.19 31.91 C9.35 31.59, 8.52 31.18, 7.74 30.7 C6.97 30.23, 6.22 29.67, 5.53 29.06 C4.85 28.44, 4.2 27.76, 3.62 27.03 C3.05 26.3, 2.52 25.5, 2.08 24.68 C1.63 23.85, 1.24 22.98, 0.93 22.08 C0.63 21.19, 0.39 20.25, 0.24 19.31 C0.08 18.37, 0 17.41, 0 16.45 C0 15.5, 0.08 14.53, 0.24 13.6 C0.39 12.66, 0.63 11.72, 0.93 10.83 C1.24 9.93, 1.63 9.05, 2.08 8.23 C2.52 7.4, 3.05 6.61, 3.62 5.88 C4.2 5.15, 4.85 4.46, 5.53 3.85 C6.22 3.24, 6.97 2.68, 7.74 2.2 C8.52 1.73, 9.35 1.32, 10.19 0.99 C11.03 0.67, 11.92 0.42, 12.8 0.25 C13.68 0.08, 14.59 0, 15.49 0 C16.39 0, 17.3 0.08, 18.18 0.25 C19.06 0.42, 19.95 0.67, 20.79 0.99 C21.63 1.32, 22.46 1.73, 23.23 2.2 C24.01 2.68, 24.76 3.24, 25.45 3.85 C26.13 4.46, 26.78 5.15, 27.36 5.88 C27.93 6.61, 28.46 7.4, 28.9 8.23 C29.35 9.05, 29.74 9.93, 30.05 10.83 C30.35 11.72, 30.59 12.66, 30.74 13.6 C30.9 14.53, 30.94 15.98, 30.98 16.45 C31.02 16.93, 31.02 15.98, 30.98 16.45" stroke="#1e1e1e" stroke-width="4" fill="none"></path></g><g stroke-linecap="round"><g transform="translate(18.16246442538136 40.02427740232838) rotate(0 7.332048938921048 1.3461967325672504)"><path d="M0 0 C1.11 0.45, 4.21 2.63, 6.65 2.69 C9.1 2.75, 13.33 0.76, 14.66 0.38 M0 0 C1.11 0.45, 4.21 2.63, 6.65 2.69 C9.1 2.75, 13.33 0.76, 14.66 0.38" stroke="#ffffff" stroke-width="4" fill="none"></path></g></g><mask></mask><g stroke-linecap="round"><g transform="translate(18.099890521191583 41.33425541855945) rotate(0 7.332048938921048 1.3461967325672504)"><path d="M0 0 C1.11 0.45, 4.21 2.63, 6.65 2.69 C9.1 2.75, 13.33 0.76, 14.66 0.38 M0 0 C1.11 0.45, 4.21 2.63, 6.65 2.69 C9.1 2.75, 13.33 0.76, 14.66 0.38" stroke="#ffffff" stroke-width="4" fill="none"></path></g></g><mask></mask><g stroke-linecap="round"><g transform="translate(13.673566070899142 37.0602690804933) rotate(0 2.9119094504874283 7.029116194962967)"><path d="M0 0 C0.76 0.87, 3.57 2.86, 4.54 5.2 C5.51 7.55, 5.61 12.58, 5.82 14.06 M0 0 C0.76 0.87, 3.57 2.86, 4.54 5.2 C5.51 7.55, 5.61 12.58, 5.82 14.06" stroke="#1e1e1e" stroke-width="4" fill="none"></path></g></g><mask></mask><g stroke-linecap="round"><g transform="translate(19.36929945321549 51.95917864736123) rotate(0 5.520415832954086 -0.026559788630208914)"><path d="M0 0 C2.35 -0.01, 4.7 -0.02, 11.04 -0.05 M0 0 C4.25 -0.02, 8.5 -0.04, 11.04 -0.05" stroke="#1e1e1e" stroke-width="4" fill="none"></path></g></g><mask></mask><g stroke-linecap="round"><g transform="translate(19.535198259672597 58.26689605485228) rotate(0 5.80666912736001 0.025415428471092127)"><path d="M0 0 C1.94 0.01, 9.68 0.04, 11.61 0.05 M0 0 C1.94 0.01, 9.68 0.04, 11.61 0.05" stroke="#1e1e1e" stroke-width="4" fill="none"></path></g></g><mask></mask><g stroke-linecap="round"><g transform="translate(37.00784394648417 37.11351463285473) rotate(0 -3.352110412744196 7.280753464702286)"><path d="M0 0 C-0.74 0.79, -3.35 2.32, -4.47 4.75 C-5.58 7.17, -6.33 12.93, -6.7 14.56 M0 0 C-0.74 0.79, -3.35 2.32, -4.47 4.75 C-5.58 7.17, -6.33 12.93, -6.7 14.56" stroke="#1e1e1e" stroke-width="4" fill="none"></path></g></g><mask></mask></svg>